<svg id="Layer_1" data-name="Layer 1" xmlns="http://www.w3.org/2000/svg" viewBox="0 0 283.46 283.46"><defs><style>.cls-1{fill:#fff;stroke:#ed1c24;stroke-miterlimit:10;stroke-width:29px;}.cls-2{fill:#231f20;}</style></defs><title>Artboard 1</title><circle class="cls-1" cx="141.73" cy="141.73" r="102.11"/><path class="cls-2" d="M64.43,121.3,85.51,111h6.8v62.9H84.23V120.2l-19.38,9.09h-.42Z"/><path class="cls-2" d="M105.14,167.2l13-8.16A173.54,173.54,0,0,0,134.3,148a31.75,31.75,0,0,0,7.73-8.33,17,17,0,0,0,2.21-8.54q0-6.38-4.25-9.82t-11.39-3.44a34.38,34.38,0,0,0-12.75,2.38,46.86,46.86,0,0,0-10.28,5.44h-.43v-8.42a49.52,49.52,0,0,1,10-4.76,39.17,39.17,0,0,1,13.52-2.29,29.65,29.65,0,0,1,13.17,2.67,18.54,18.54,0,0,1,8.16,7.4,21.5,21.5,0,0,1,2.72,10.92A21,21,0,0,1,150,141.49a38.41,38.41,0,0,1-8.84,10.11,125.16,125.16,0,0,1-16.57,11.52l-4.25,2.55v.43H153v7.82H105.14Z"/><path class="cls-2" d="M204.17,114.08a25.43,25.43,0,0,1,9.69,11.22,40.43,40.43,0,0,1,3.4,17.17,40.49,40.49,0,0,1-3.4,17.17,25.54,25.54,0,0,1-9.69,11.22,29.93,29.93,0,0,1-29.58,0,25.41,25.41,0,0,1-9.69-11.22,40.34,40.34,0,0,1-3.4-17.17,40.28,40.28,0,0,1,3.4-17.17,25.31,25.31,0,0,1,9.69-11.22,29.93,29.93,0,0,1,29.58,0Zm-25.38,6.67a18.59,18.59,0,0,0-6.84,8.46,33.5,33.5,0,0,0-2.38,13.26q0,11.64,5.27,18.14t14.54,6.51a17.93,17.93,0,0,0,17.42-11.39,33.39,33.39,0,0,0,2.38-13.26q0-11.65-5.27-18.15t-14.53-6.5A18.83,18.83,0,0,0,178.79,120.75Z"/></svg>