<svg id="Layer_1" data-name="Layer 1" xmlns="http://www.w3.org/2000/svg" viewBox="0 0 283.46 283.46"><defs><style>.cls-1{fill:#fff;stroke:#ed1c24;stroke-miterlimit:10;stroke-width:29px;}.cls-2{fill:#231f20;}</style></defs><title>Artboard 1</title><circle class="cls-1" cx="141.73" cy="141.73" r="102.11"/><path class="cls-2" d="M134.57,111v7.65H96.41l-3,19.89h.34a49.25,49.25,0,0,1,8.76-2.55,52.63,52.63,0,0,1,10.88-1.11q11,0,17.42,4.89t6.46,14.41a17.72,17.72,0,0,1-3.65,11.22,22.19,22.19,0,0,1-9.78,7,37,37,0,0,1-13.34,2.34A52.19,52.19,0,0,1,96.58,173a47.36,47.36,0,0,1-10.88-4.37V160h.42a43.27,43.27,0,0,0,11.61,5.27,45.42,45.42,0,0,0,12.7,1.87,28.89,28.89,0,0,0,9.65-1.49,14.46,14.46,0,0,0,6.59-4.42,11,11,0,0,0,2.38-7.18q0-5.86-4.17-8.93T112.47,142a50.06,50.06,0,0,0-11.68,1.19,71.49,71.49,0,0,0-9.57,3.06l-.25.09-5.87-.94L90.29,111Z"/><path class="cls-2" d="M188.38,114.08a25.43,25.43,0,0,1,9.69,11.22,40.43,40.43,0,0,1,3.4,17.17,40.49,40.49,0,0,1-3.4,17.17,25.54,25.54,0,0,1-9.69,11.22,29.93,29.93,0,0,1-29.58,0,25.41,25.41,0,0,1-9.69-11.22,40.34,40.34,0,0,1-3.4-17.17,40.28,40.28,0,0,1,3.4-17.17,25.31,25.31,0,0,1,9.69-11.22,29.93,29.93,0,0,1,29.58,0ZM163,120.75a18.55,18.55,0,0,0-6.85,8.46,33.5,33.5,0,0,0-2.38,13.26q0,11.64,5.27,18.14t14.54,6.51a18.78,18.78,0,0,0,10.58-2.94,18.49,18.49,0,0,0,6.84-8.45,33.39,33.39,0,0,0,2.38-13.26q0-11.65-5.27-18.15t-14.53-6.5A18.77,18.77,0,0,0,163,120.75Z"/></svg>